<mxfile host="app.diagrams.net" modified="2023-08-28T12:43:29.972Z" agent="Mozilla/5.0 (Macintosh; Intel Mac OS X 10_15_7) AppleWebKit/537.36 (KHTML, like Gecko) Chrome/115.0.0.0 Safari/537.36" version="21.6.9" etag="pxx7f7bapCrOB7xiz5SE" type="github">
  <diagram name="Page-1" id="q55UtAsxOrIb8_m2e40U">
    <mxGraphModel>
      <root>
        <mxCell id="0" />
        <mxCell id="1" parent="0" />
      </root>
    </mxGraphModel>
  </diagram>
</mxfile>
